<svg width="571" height="503" viewBox="0 0 571 503" fill="none" xmlns="http://www.w3.org/2000/svg">
<g id="delivery 1">
<g id="Group">
<g id="Group_2">
<path id="Vector" d="M416.137 299.052C384.782 299.052 359.274 327.494 359.274 362.456C359.274 397.417 384.782 425.859 416.137 425.859C447.497 425.859 473 397.417 473 362.456C473 327.494 447.492 299.052 416.137 299.052ZM416.137 394.158C400.457 394.158 387.705 379.939 387.705 362.456C387.705 344.973 400.457 330.754 416.137 330.754C431.817 330.754 444.568 344.973 444.568 362.456C444.568 379.94 431.817 394.158 416.137 394.158Z" fill="#085076"/>
</g>
</g>
<g id="Group_3">
<g id="Group_4">
<path id="Vector_2" d="M459.073 117.571C456.584 112.219 451.522 108.843 445.987 108.843H368.87V140.544H436.958L476.829 226.392L503 212.147L459.073 117.571Z" fill="#085076"/>
</g>
</g>
<g id="Group_5">
<g id="Group_6">
<path id="Vector_3" d="M377.268 347.134H241.116V378.836H377.268V347.134Z" fill="#085076"/>
</g>
</g>
<g id="Group_7">
<g id="Group_8">
<path id="Vector_4" d="M131.353 347.134H68.9761C59.0372 347.134 50.9829 354.23 50.9829 362.984C50.9829 371.74 59.0383 378.835 68.9761 378.835H131.355C141.294 378.835 149.348 371.739 149.348 362.984C149.348 354.229 141.292 347.134 131.353 347.134Z" fill="#085076"/>
</g>
</g>
<g id="Group_9">
<g id="Group_10">
<path id="Vector_5" d="M539.425 250.232L505.938 210.076C502.72 206.208 497.755 203.947 492.494 203.947H368.779V92.9911C368.779 84.2358 361.158 77.1407 351.755 77.1407H68.0073C58.6035 77.1407 50.9829 84.2368 50.9829 92.9911C50.9829 101.745 58.6045 108.842 68.0073 108.842H334.73V219.797C334.73 228.553 342.351 235.648 351.754 235.648H484.157L508.95 265.384V347.132H461.848C452.444 347.132 444.823 354.228 444.823 362.982C444.823 371.738 452.445 378.833 461.848 378.833H525.975C535.378 378.833 542.999 371.737 543 362.982V259.954C543 256.435 541.74 253.011 539.425 250.232Z" fill="#085076"/>
</g>
</g>
<g id="Group_11">
<g id="Group_12">
<path id="Vector_6" d="M130.155 266.823H47.383C37.444 266.823 29.3898 273.919 29.3898 282.673C29.3898 291.429 37.4451 298.524 47.383 298.524H130.153C140.092 298.524 148.147 291.428 148.147 282.673C148.148 273.919 140.092 266.823 130.155 266.823Z" fill="#085076"/>
</g>
</g>
<g id="Group_13">
<g id="Group_14">
<path id="Vector_7" d="M171.54 204.475H17.9932C8.05534 204.475 0 211.571 0 220.327C0 229.082 8.05534 236.177 17.9932 236.177H171.54C181.479 236.177 189.533 229.081 189.533 220.327C189.533 211.572 181.479 204.475 171.54 204.475Z" fill="#085076"/>
</g>
</g>
<g id="Group_15">
<g id="Group_16">
<path id="Vector_8" d="M200.93 142.129H47.383C37.444 142.129 29.3898 149.225 29.3898 157.979C29.3898 166.735 37.4451 173.83 47.383 173.83H200.93C210.869 173.83 218.923 166.734 218.923 157.979C218.924 149.225 210.869 142.129 200.93 142.129Z" fill="#085076"/>
</g>
</g>
<g id="Group 5">
<g id="Group_17">
<g id="Group_18">
<path id="Vector_9" d="M185.823 302.37C153.939 300.512 129.448 327.537 131.229 362.614C133.009 397.692 160.396 427.74 192.28 429.598C224.165 431.457 248.655 404.432 246.875 369.354C245.094 334.277 217.707 304.228 185.823 302.37ZM190.666 397.791C174.722 396.862 161.03 381.84 160.14 364.299C159.25 346.758 171.493 333.248 187.437 334.177C203.377 335.106 217.073 350.128 217.963 367.669C218.853 385.211 206.61 398.721 190.666 397.791Z" fill="#085076"/>
</g>
</g>
<ellipse id="Ellipse 1" rx="9.21274" ry="9.77562" transform="matrix(0.998677 0.0514161 0.0432268 0.999065 190.841 412.454)" fill="white"/>
</g>
</g>
</svg>
