<svg width="479" height="479" viewBox="0 0 479 479" fill="none" xmlns="http://www.w3.org/2000/svg">
<g clip-path="url(#clip0)">
<path d="M293.677 195.006L221.707 262.983L187.167 227.448C183.338 223.506 177.033 223.416 173.094 227.245C169.152 231.078 169.062 237.38 172.892 241.322L214.318 283.848C218.167 287.72 224.386 287.852 228.395 284.144L307.555 209.48C309.477 207.667 310.6 205.163 310.674 202.523C310.749 199.884 309.77 197.322 307.953 195.403C304.1 191.399 297.748 191.223 293.677 195.006V195.006Z" fill="#085076"/>
<path d="M240.272 90.3904C158.02 90.3904 91.1382 157.272 91.1382 239.524C91.1382 321.781 158.02 388.662 240.272 388.662C322.528 388.662 389.41 321.781 389.41 239.524C389.41 157.272 322.528 90.3904 240.272 90.3904V90.3904ZM240.272 368.697C169 368.697 111.103 310.699 111.103 239.524C111.103 168.35 169 110.355 240.272 110.355C311.614 110.355 369.445 168.186 369.445 239.524C369.445 310.862 311.614 368.697 240.272 368.697V368.697Z" fill="#085076"/>
<path d="M445.509 184.622L448.804 125.426C449.034 121.452 446.874 117.721 443.314 115.943L390.607 89.2908L363.955 36.5835C362.142 33.0546 358.433 30.9061 354.472 31.0933L295.175 34.2907L245.762 1.64552C242.432 -0.549807 238.116 -0.549807 234.782 1.64552L185.369 34.2907L126.178 30.9958C122.2 30.7618 118.473 32.9221 116.694 36.486L90.0386 89.1933L37.3353 115.845C33.8025 117.655 31.6579 121.363 31.845 125.328L35.1361 184.524L2.49476 233.936C0.299436 237.266 0.299436 241.583 2.49476 244.917L35.0386 294.427L31.7436 353.623C31.5136 357.596 33.6699 361.328 37.2339 363.106L89.9412 389.758L116.593 442.465C118.402 445.998 122.111 448.142 126.076 447.955L185.272 444.66L234.684 477.302C237.995 479.567 242.354 479.567 245.665 477.302L295.077 444.66L354.273 447.955C358.246 448.185 361.974 446.025 363.756 442.465L390.408 389.758L443.115 363.106C446.644 361.293 448.793 357.588 448.606 353.623L445.311 294.427L477.952 245.014C480.147 241.684 480.147 237.364 477.952 234.034L445.509 184.622ZM426.941 286.242C425.724 288.028 425.159 290.177 425.346 292.333L428.438 348.331L378.628 373.486C376.729 374.437 375.189 375.981 374.237 377.88L349.079 427.69L293.081 424.598C290.936 424.52 288.819 425.074 286.99 426.193L240.272 457.041L193.558 426.193C191.936 425.097 190.025 424.505 188.068 424.497H187.569L131.567 427.593L106.412 377.779C105.46 375.88 103.92 374.34 102.017 373.388L52.1059 348.331L55.202 292.333C55.28 290.188 54.7224 288.071 53.6033 286.242L22.7596 239.524L53.6033 192.806C54.8238 191.024 55.3892 188.872 55.202 186.719L52.1059 130.717L101.92 105.563C103.819 104.611 105.359 103.071 106.311 101.172L131.465 51.3581L187.467 54.4542C189.608 54.5282 191.725 53.9745 193.558 52.8554L240.272 22.0117L286.99 52.8554C288.776 54.0759 290.928 54.6413 293.081 54.4542L349.079 51.3581L374.237 101.172C375.189 103.071 376.729 104.611 378.628 105.563L428.438 130.717L425.346 186.719C425.268 188.86 425.826 190.978 426.941 192.806L457.788 239.524L426.941 286.242Z" fill="#085076"/>
</g>
<defs>
<clipPath id="clip0">
<rect width="479" height="479" fill="white"/>
</clipPath>
</defs>
</svg>
