<svg width="313" height="314" viewBox="0 0 313 314" fill="none" xmlns="http://www.w3.org/2000/svg">
<path d="M245.174 43.2413C239.608 43.2413 235.09 47.8893 235.09 53.6163V62.2639C213.431 42.8315 185.808 32 156.37 32C89.9962 32 36 87.7604 36 156.292C36 162.019 40.5173 166.667 46.0833 166.667C51.6493 166.667 56.1667 162.019 56.1667 156.292C56.1667 99.1989 101.118 52.75 156.37 52.75C180.605 52.75 203.373 61.5791 221.322 77.4373H212.08C206.514 77.4373 201.997 82.0853 201.997 87.8123C201.997 93.5393 206.514 98.1873 212.08 98.1873H245.174C250.74 98.1873 255.257 93.5393 255.257 87.8123V53.6163C255.257 47.8893 250.74 43.2413 245.174 43.2413Z" fill="#085076"/>
<path d="M267.917 146.333C262.351 146.333 257.833 150.981 257.833 156.708C257.833 213.801 212.882 260.25 157.63 260.25C133.677 260.25 111.151 251.639 93.3036 236.128H102.989C108.555 236.128 113.072 231.48 113.072 225.753C113.072 220.026 108.555 215.378 102.989 215.378H69.8901C69.7993 215.378 69.7187 215.404 69.633 215.404C69.2498 215.414 68.8717 215.466 68.4885 215.523C68.2062 215.565 67.9238 215.591 67.6466 215.658C67.3138 215.736 66.9861 215.861 66.6584 215.975C66.3559 216.084 66.0483 216.177 65.7559 216.312C65.4786 216.442 65.2165 216.608 64.9493 216.763C64.6316 216.95 64.3191 217.132 64.0216 217.349C63.946 217.406 63.8603 217.438 63.7846 217.5C63.6132 217.635 63.4821 217.801 63.3208 217.946C63.0536 218.185 62.7864 218.423 62.5444 218.693C62.3175 218.942 62.1209 219.201 61.9243 219.466C61.7276 219.73 61.5361 219.995 61.3596 220.275C61.1831 220.566 61.0319 220.867 60.8857 221.167C60.7395 221.463 60.6033 221.764 60.4874 222.075C60.3714 222.397 60.2807 222.718 60.195 223.05C60.1143 223.367 60.0286 223.683 59.9782 224.01C59.9177 224.378 59.8925 224.747 59.8673 225.12C59.8521 225.333 59.8068 225.54 59.8068 225.758V259.954C59.8068 265.681 64.3241 270.329 69.8901 270.329C75.4561 270.329 79.9734 265.681 79.9734 259.954V251.706C101.466 270.532 128.676 281 157.63 281C224.004 281 278 225.24 278 156.708C278 150.981 273.483 146.333 267.917 146.333Z" fill="#085076"/>
</svg>
